<svg xmlns="http://www.w3.org/2000/svg" width="500" height="500" viewBox="0 0 500 500" version="1.1"><path d="M 99.287 125.740 C 102.469 125.939, 107.419 125.937, 110.287 125.736 C 113.154 125.535, 110.550 125.372, 104.500 125.374 C 98.450 125.376, 96.104 125.541, 99.287 125.740 M 366.728 172.722 C 368.503 172.943, 371.653 172.946, 373.728 172.730 C 375.802 172.513, 374.350 172.333, 370.500 172.328 C 366.650 172.324, 364.952 172.501, 366.728 172.722 M 392.789 173.741 C 396.248 173.937, 401.648 173.936, 404.789 173.738 C 407.930 173.540, 405.100 173.380, 398.500 173.382 C 391.900 173.384, 389.330 173.546, 392.789 173.741 M 403.250 176.689 C 404.212 176.941, 405.788 176.941, 406.750 176.689 C 407.712 176.438, 406.925 176.232, 405 176.232 C 403.075 176.232, 402.288 176.438, 403.250 176.689 M 394.250 177.689 C 395.212 177.941, 396.788 177.941, 397.750 177.689 C 398.712 177.438, 397.925 177.232, 396 177.232 C 394.075 177.232, 393.288 177.438, 394.250 177.689 M 228.250 178.742 C 231.963 178.934, 238.037 178.934, 241.750 178.742 C 245.463 178.549, 242.425 178.392, 235 178.392 C 227.575 178.392, 224.537 178.549, 228.250 178.742 M 297.797 178.745 C 302.361 178.930, 309.561 178.929, 313.797 178.742 C 318.034 178.555, 314.300 178.404, 305.500 178.405 C 296.700 178.406, 293.234 178.559, 297.797 178.745 M 378.750 178.706 C 379.988 178.944, 382.012 178.944, 383.250 178.706 C 384.488 178.467, 383.475 178.272, 381 178.272 C 378.525 178.272, 377.512 178.467, 378.750 178.706 M 339.304 179.747 C 345.247 179.924, 354.697 179.923, 360.304 179.745 C 365.912 179.567, 361.050 179.422, 349.500 179.423 C 337.950 179.424, 333.362 179.570, 339.304 179.747 M 323.250 183.739 C 326.413 183.937, 331.587 183.937, 334.750 183.739 C 337.913 183.541, 335.325 183.378, 329 183.378 C 322.675 183.378, 320.087 183.541, 323.250 183.739 M 346.750 183.732 C 349.087 183.943, 352.913 183.943, 355.250 183.732 C 357.587 183.522, 355.675 183.349, 351 183.349 C 346.325 183.349, 344.413 183.522, 346.750 183.732 M 304.250 184.716 C 305.762 184.945, 308.238 184.945, 309.750 184.716 C 311.262 184.487, 310.025 184.300, 307 184.300 C 303.975 184.300, 302.738 184.487, 304.250 184.716 M 365.500 185 C 364.225 185.548, 367.306 185.840, 374 185.805 C 382.455 185.760, 383.624 185.594, 380 184.949 C 374.123 183.903, 368.002 183.925, 365.500 185 M 288.750 185.706 C 289.988 185.944, 292.012 185.944, 293.250 185.706 C 294.488 185.467, 293.475 185.272, 291 185.272 C 288.525 185.272, 287.512 185.467, 288.750 185.706 M 315.728 187.722 C 317.503 187.943, 320.653 187.946, 322.728 187.730 C 324.802 187.513, 323.350 187.333, 319.500 187.328 C 315.650 187.324, 313.952 187.501, 315.728 187.722 M 320.250 190.689 C 321.212 190.941, 322.788 190.941, 323.750 190.689 C 324.712 190.438, 323.925 190.232, 322 190.232 C 320.075 190.232, 319.288 190.438, 320.250 190.689 M 300 192 L 295.500 192.700 301 192.792 C 304.025 192.843, 308.300 192.512, 310.500 192.057 L 314.500 191.230 309.500 191.265 C 306.750 191.285, 302.475 191.615, 300 192 M 319.750 193.723 C 321.538 193.945, 324.462 193.945, 326.250 193.723 C 328.038 193.502, 326.575 193.320, 323 193.320 C 319.425 193.320, 317.962 193.502, 319.750 193.723 M 191 201.007 C 187.975 201.381, 192.925 201.470, 202 201.205 C 211.075 200.939, 218.688 200.560, 218.917 200.361 C 219.616 199.755, 196.864 200.281, 191 201.007 M 370.728 201.722 C 372.503 201.943, 375.653 201.946, 377.728 201.730 C 379.802 201.513, 378.350 201.333, 374.500 201.328 C 370.650 201.324, 368.952 201.501, 370.728 201.722 M 207.264 202.718 C 208.784 202.947, 211.034 202.941, 212.264 202.704 C 213.494 202.467, 212.250 202.279, 209.500 202.286 C 206.750 202.294, 205.744 202.488, 207.264 202.718 M 392.250 202.716 C 393.762 202.945, 396.238 202.945, 397.750 202.716 C 399.262 202.487, 398.025 202.300, 395 202.300 C 391.975 202.300, 390.738 202.487, 392.250 202.716 M 223.768 203.725 C 225.565 203.947, 228.265 203.943, 229.768 203.715 C 231.271 203.486, 229.800 203.304, 226.500 203.310 C 223.200 203.315, 221.971 203.502, 223.768 203.725 M 242.776 204.733 C 245.128 204.945, 248.728 204.942, 250.776 204.727 C 252.824 204.512, 250.900 204.339, 246.500 204.343 C 242.100 204.346, 240.424 204.522, 242.776 204.733 M 398.750 204.706 C 399.988 204.944, 402.012 204.944, 403.250 204.706 C 404.488 204.467, 403.475 204.272, 401 204.272 C 398.525 204.272, 397.512 204.467, 398.750 204.706 M 269.250 205.728 C 271.313 205.944, 274.688 205.944, 276.750 205.728 C 278.813 205.513, 277.125 205.336, 273 205.336 C 268.875 205.336, 267.188 205.513, 269.250 205.728 M 387.762 205.707 C 389.006 205.946, 390.806 205.937, 391.762 205.687 C 392.718 205.437, 391.700 205.241, 389.500 205.252 C 387.300 205.263, 386.518 205.468, 387.762 205.707 M 293.750 206.732 C 296.087 206.943, 299.913 206.943, 302.250 206.732 C 304.587 206.522, 302.675 206.349, 298 206.349 C 293.325 206.349, 291.413 206.522, 293.750 206.732 M 375.762 206.707 C 377.006 206.946, 378.806 206.937, 379.762 206.687 C 380.718 206.437, 379.700 206.241, 377.500 206.252 C 375.300 206.263, 374.518 206.468, 375.762 206.707 M 319.762 207.707 C 321.006 207.946, 322.806 207.937, 323.762 207.687 C 324.718 207.437, 323.700 207.241, 321.500 207.252 C 319.300 207.263, 318.518 207.468, 319.762 207.707 M 351.750 207.723 C 353.538 207.945, 356.462 207.945, 358.250 207.723 C 360.038 207.502, 358.575 207.320, 355 207.320 C 351.425 207.320, 349.962 207.502, 351.750 207.723 M 313.768 214.725 C 315.565 214.947, 318.265 214.943, 319.768 214.715 C 321.271 214.486, 319.800 214.304, 316.500 214.310 C 313.200 214.315, 311.971 214.502, 313.768 214.725 M 349.264 214.718 C 350.784 214.947, 353.034 214.941, 354.264 214.704 C 355.494 214.467, 354.250 214.279, 351.500 214.286 C 348.750 214.294, 347.744 214.488, 349.264 214.718 M 271.292 215.742 C 275.027 215.935, 280.877 215.934, 284.292 215.739 C 287.706 215.545, 284.650 215.387, 277.500 215.389 C 270.350 215.390, 267.556 215.550, 271.292 215.742 M 389.750 215.732 C 392.087 215.943, 395.913 215.943, 398.250 215.732 C 400.587 215.522, 398.675 215.349, 394 215.349 C 389.325 215.349, 387.413 215.522, 389.750 215.732 M 231.287 216.740 C 234.469 216.939, 239.419 216.937, 242.287 216.736 C 245.154 216.535, 242.550 216.372, 236.500 216.374 C 230.450 216.376, 228.104 216.541, 231.287 216.740 M 412 217 C 412 217.550, 414.025 218, 416.500 218 C 418.975 218, 421 217.550, 421 217 C 421 216.450, 418.975 216, 416.500 216 C 414.025 216, 412 216.450, 412 217 M 240.776 218.733 C 243.128 218.945, 246.728 218.942, 248.776 218.727 C 250.824 218.512, 248.900 218.339, 244.500 218.343 C 240.100 218.346, 238.424 218.522, 240.776 218.733 M 398.264 218.718 C 399.784 218.947, 402.034 218.941, 403.264 218.704 C 404.494 218.467, 403.250 218.279, 400.500 218.286 C 397.750 218.294, 396.744 218.488, 398.264 218.718 M 266.728 219.722 C 268.503 219.943, 271.653 219.946, 273.728 219.730 C 275.802 219.513, 274.350 219.333, 270.500 219.328 C 266.650 219.324, 264.952 219.501, 266.728 219.722 M 380.762 219.707 C 382.006 219.946, 383.806 219.937, 384.762 219.687 C 385.718 219.437, 384.700 219.241, 382.500 219.252 C 380.300 219.263, 379.518 219.468, 380.762 219.707 M 292.250 220.742 C 295.962 220.934, 302.038 220.934, 305.750 220.742 C 309.462 220.549, 306.425 220.392, 299 220.392 C 291.575 220.392, 288.538 220.549, 292.250 220.742 M 366.250 220.689 C 367.212 220.941, 368.788 220.941, 369.750 220.689 C 370.712 220.438, 369.925 220.232, 368 220.232 C 366.075 220.232, 365.288 220.438, 366.250 220.689 M 350.250 221.716 C 351.762 221.945, 354.238 221.945, 355.750 221.716 C 357.262 221.487, 356.025 221.300, 353 221.300 C 349.975 221.300, 348.738 221.487, 350.250 221.716 M 282.502 227.996 C 281.932 228.920, 317.841 228.293, 318.917 227.361 C 319.146 227.162, 311.185 227, 301.226 227 C 290.278 227, 282.875 227.394, 282.502 227.996 M 307.728 229.722 C 309.503 229.943, 312.653 229.946, 314.728 229.730 C 316.802 229.513, 315.350 229.333, 311.500 229.328 C 307.650 229.324, 305.952 229.501, 307.728 229.722 M 311.728 235.722 C 313.503 235.943, 316.653 235.946, 318.728 235.730 C 320.802 235.513, 319.350 235.333, 315.500 235.328 C 311.650 235.324, 309.952 235.501, 311.728 235.722 M 268.750 236.744 C 273.288 236.929, 280.712 236.929, 285.250 236.744 C 289.788 236.559, 286.075 236.407, 277 236.407 C 267.925 236.407, 264.212 236.559, 268.750 236.744 M 199.087 237.874 C 196.801 238.514, 235.709 238.269, 241 237.611 C 242.375 237.440, 234.050 237.277, 222.500 237.250 C 210.950 237.222, 200.414 237.503, 199.087 237.874 M 347.768 237.725 C 349.565 237.947, 352.265 237.943, 353.768 237.715 C 355.271 237.486, 353.800 237.304, 350.500 237.310 C 347.200 237.315, 345.971 237.502, 347.768 237.725 M 379.776 238.733 C 382.128 238.945, 385.728 238.942, 387.776 238.727 C 389.824 238.512, 387.900 238.339, 383.500 238.343 C 379.100 238.346, 377.424 238.522, 379.776 238.733 M 215.750 239.723 C 217.537 239.945, 220.463 239.945, 222.250 239.723 C 224.037 239.502, 222.575 239.320, 219 239.320 C 215.425 239.320, 213.963 239.502, 215.750 239.723 M 233.750 240.723 C 235.537 240.945, 238.463 240.945, 240.250 240.723 C 242.037 240.502, 240.575 240.320, 237 240.320 C 233.425 240.320, 231.963 240.502, 233.750 240.723 M 257.292 241.742 C 261.027 241.935, 266.877 241.934, 270.292 241.739 C 273.706 241.545, 270.650 241.387, 263.500 241.389 C 256.350 241.390, 253.556 241.550, 257.292 241.742 M 378.762 241.707 C 380.006 241.946, 381.806 241.937, 382.762 241.687 C 383.718 241.437, 382.700 241.241, 380.500 241.252 C 378.300 241.263, 377.518 241.468, 378.762 241.707 M 303.287 242.740 C 306.469 242.939, 311.419 242.937, 314.287 242.736 C 317.154 242.535, 314.550 242.372, 308.500 242.374 C 302.450 242.376, 300.104 242.541, 303.287 242.740 M 364.250 242.689 C 365.212 242.941, 366.788 242.941, 367.750 242.689 C 368.712 242.438, 367.925 242.232, 366 242.232 C 364.075 242.232, 363.288 242.438, 364.250 242.689 M 347.750 243.706 C 348.988 243.944, 351.012 243.944, 352.250 243.706 C 353.488 243.467, 352.475 243.272, 350 243.272 C 347.525 243.272, 346.512 243.467, 347.750 243.706 M 312.250 247.716 C 313.762 247.945, 316.238 247.945, 317.750 247.716 C 319.262 247.487, 318.025 247.300, 315 247.300 C 311.975 247.300, 310.738 247.487, 312.250 247.716 M 294.750 248.706 C 295.988 248.944, 298.012 248.944, 299.250 248.706 C 300.488 248.467, 299.475 248.272, 297 248.272 C 294.525 248.272, 293.512 248.467, 294.750 248.706 M 280.500 250 C 280.840 250.550, 282.779 250.993, 284.809 250.985 C 287.560 250.973, 288.118 250.723, 287 250 C 285.004 248.710, 279.703 248.710, 280.500 250 M 303.750 251.723 C 305.538 251.945, 308.462 251.945, 310.250 251.723 C 312.038 251.502, 310.575 251.320, 307 251.320 C 303.425 251.320, 301.962 251.502, 303.750 251.723 M 311.768 257.725 C 313.565 257.947, 316.265 257.943, 317.768 257.715 C 319.271 257.486, 317.800 257.304, 314.500 257.310 C 311.200 257.315, 309.971 257.502, 311.768 257.725 M 278.750 258.737 C 281.637 258.939, 286.363 258.939, 289.250 258.737 C 292.137 258.535, 289.775 258.370, 284 258.370 C 278.225 258.370, 275.863 258.535, 278.750 258.737 M 251.250 259.728 C 253.313 259.944, 256.688 259.944, 258.750 259.728 C 260.813 259.513, 259.125 259.336, 255 259.336 C 250.875 259.336, 249.188 259.513, 251.250 259.728 M 235.728 260.722 C 237.503 260.943, 240.653 260.946, 242.728 260.730 C 244.802 260.513, 243.350 260.333, 239.500 260.328 C 235.650 260.324, 233.952 260.501, 235.728 260.722 M 256.776 261.733 C 259.128 261.945, 262.728 261.942, 264.776 261.727 C 266.824 261.512, 264.900 261.339, 260.500 261.343 C 256.100 261.346, 254.424 261.522, 256.776 261.733 M 278.750 262.723 C 280.538 262.945, 283.462 262.945, 285.250 262.723 C 287.038 262.502, 285.575 262.320, 282 262.320 C 278.425 262.320, 276.962 262.502, 278.750 262.723 M 302.264 263.718 C 303.784 263.947, 306.034 263.941, 307.264 263.704 C 308.494 263.467, 307.250 263.279, 304.500 263.286 C 301.750 263.294, 300.744 263.488, 302.264 263.718 M 196 271.500 C 197.375 272.286, 198.950 272.929, 199.500 272.929 C 200.050 272.929, 199.375 272.286, 198 271.500 C 196.625 270.714, 195.050 270.071, 194.500 270.071 C 193.950 270.071, 194.625 270.714, 196 271.500 M 208.250 275.689 C 209.213 275.941, 210.787 275.941, 211.750 275.689 C 212.713 275.438, 211.925 275.232, 210 275.232 C 208.075 275.232, 207.287 275.438, 208.250 275.689 M 185 280.470 C 185 281.312, 185.338 281.904, 185.750 281.788 C 186.162 281.671, 187.512 282.137, 188.750 282.823 C 191.905 284.572, 191.550 283.782, 188 281.158 C 185.607 279.389, 185 279.250, 185 280.470 M 189 290.313 C 189 290.485, 190.463 291.948, 192.250 293.563 L 195.500 296.500 192.563 293.250 C 189.825 290.221, 189 289.540, 189 290.313 M 225.750 301.706 C 226.988 301.944, 229.012 301.944, 230.250 301.706 C 231.488 301.467, 230.475 301.272, 228 301.272 C 225.525 301.272, 224.512 301.467, 225.750 301.706 M 247.768 301.725 C 249.565 301.947, 252.265 301.943, 253.768 301.715 C 255.271 301.486, 253.800 301.304, 250.500 301.310 C 247.200 301.315, 245.971 301.502, 247.768 301.725 M 326.405 312.845 C 326.940 313.712, 311.966 314.060, 266.309 314.242 L 205.500 314.484 265.942 314.750 C 300.577 314.902, 326.766 314.634, 327.279 314.121 C 327.806 313.594, 327.663 312.910, 326.933 312.458 C 326.132 311.964, 325.945 312.101, 326.405 312.845 M 202.264 323.718 C 203.784 323.947, 206.034 323.941, 207.264 323.704 C 208.494 323.467, 207.250 323.279, 204.500 323.286 C 201.750 323.294, 200.744 323.488, 202.264 323.718 M 298.264 323.718 C 299.784 323.947, 302.034 323.941, 303.264 323.704 C 304.494 323.467, 303.250 323.279, 300.500 323.286 C 297.750 323.294, 296.744 323.488, 298.264 323.718 M 177.776 325.733 C 180.128 325.945, 183.728 325.942, 185.776 325.727 C 187.824 325.512, 185.900 325.339, 181.500 325.343 C 177.100 325.346, 175.424 325.522, 177.776 325.733 M 157.222 327.196 C 159.702 327.855, 161.871 327.847, 163.722 327.172 C 166.088 326.308, 165.536 326.162, 160 326.182 C 153.853 326.205, 153.702 326.260, 157.222 327.196 M 169.264 328.718 C 170.784 328.947, 173.034 328.941, 174.264 328.704 C 175.494 328.467, 174.250 328.279, 171.500 328.286 C 168.750 328.294, 167.744 328.488, 169.264 328.718 M 185 329.387 C 185 329.599, 186.350 329.971, 188 330.213 C 189.650 330.455, 191 330.282, 191 329.827 C 191 329.372, 189.650 329, 188 329 C 186.350 329, 185 329.174, 185 329.387 M 209.286 338.301 C 210.504 339.566, 211.685 340.469, 211.911 340.307 C 212.494 339.888, 208.856 336, 207.881 336 C 207.436 336, 208.068 337.035, 209.286 338.301 M 182.250 338.689 C 183.213 338.941, 184.787 338.941, 185.750 338.689 C 186.713 338.438, 185.925 338.232, 184 338.232 C 182.075 338.232, 181.287 338.438, 182.250 338.689 M 161 340 C 158.269 340.575, 159.202 340.766, 165.250 340.868 C 169.838 340.946, 173 340.592, 173 340 C 173 338.878, 166.329 338.878, 161 340 M 225.373 342.423 C 225.456 344.984, 226.021 346.485, 227 346.749 C 228.023 347.024, 228.128 346.887, 227.331 346.317 C 226.689 345.858, 225.956 343.911, 225.704 341.991 C 225.265 338.647, 225.251 338.665, 225.373 342.423 M 318.252 344.500 C 318.263 346.700, 318.468 347.482, 318.707 346.238 C 318.946 344.994, 318.937 343.194, 318.687 342.238 C 318.437 341.282, 318.241 342.300, 318.252 344.500 M 209.286 345.699 C 208.068 346.965, 207.436 348, 207.881 348 C 208.856 348, 212.494 344.112, 211.911 343.693 C 211.685 343.531, 210.504 344.434, 209.286 345.699 M 233.250 347.689 C 234.213 347.941, 235.787 347.941, 236.750 347.689 C 237.713 347.438, 236.925 347.232, 235 347.232 C 233.075 347.232, 232.287 347.438, 233.250 347.689 M 260.784 347.738 C 263.689 347.941, 268.189 347.939, 270.784 347.734 C 273.378 347.528, 271 347.363, 265.500 347.365 C 260 347.368, 257.878 347.536, 260.784 347.738 M 238.250 360.746 C 244.162 360.923, 253.838 360.923, 259.750 360.746 C 265.663 360.569, 260.825 360.425, 249 360.425 C 237.175 360.425, 232.338 360.569, 238.250 360.746 M 211.750 361.706 C 212.988 361.944, 215.012 361.944, 216.250 361.706 C 217.488 361.467, 216.475 361.272, 214 361.272 C 211.525 361.272, 210.512 361.467, 211.750 361.706 M 280.750 361.706 C 281.988 361.944, 284.012 361.944, 285.250 361.706 C 286.488 361.467, 285.475 361.272, 283 361.272 C 280.525 361.272, 279.512 361.467, 280.750 361.706 M 195.750 362.706 C 196.988 362.944, 199.012 362.944, 200.250 362.706 C 201.488 362.467, 200.475 362.272, 198 362.272 C 195.525 362.272, 194.512 362.467, 195.750 362.706 M 295.768 362.725 C 297.565 362.947, 300.265 362.943, 301.768 362.715 C 303.271 362.486, 301.800 362.304, 298.500 362.310 C 295.200 362.315, 293.971 362.502, 295.768 362.725 M 181.750 363.706 C 182.988 363.944, 185.012 363.944, 186.250 363.706 C 187.488 363.467, 186.475 363.272, 184 363.272 C 181.525 363.272, 180.512 363.467, 181.750 363.706 M 313.762 363.707 C 315.006 363.946, 316.806 363.937, 317.762 363.687 C 318.718 363.437, 317.700 363.241, 315.500 363.252 C 313.300 363.263, 312.518 363.468, 313.762 363.707 M 168.762 364.707 C 170.006 364.946, 171.806 364.937, 172.762 364.687 C 173.718 364.437, 172.700 364.241, 170.500 364.252 C 168.300 364.263, 167.518 364.468, 168.762 364.707 M 327.762 364.707 C 329.006 364.946, 330.806 364.937, 331.762 364.687 C 332.718 364.437, 331.700 364.241, 329.500 364.252 C 327.300 364.263, 326.518 364.468, 327.762 364.707 M 157.250 365.689 C 158.213 365.941, 159.787 365.941, 160.750 365.689 C 161.713 365.438, 160.925 365.232, 159 365.232 C 157.075 365.232, 156.287 365.438, 157.250 365.689 M 339.250 365.689 C 340.212 365.941, 341.788 365.941, 342.750 365.689 C 343.712 365.438, 342.925 365.232, 341 365.232 C 339.075 365.232, 338.288 365.438, 339.250 365.689 M 145.250 366.689 C 146.213 366.941, 147.787 366.941, 148.750 366.689 C 149.713 366.438, 148.925 366.232, 147 366.232 C 145.075 366.232, 144.287 366.438, 145.250 366.689 M 349.762 366.707 C 351.006 366.946, 352.806 366.937, 353.762 366.687 C 354.718 366.437, 353.700 366.241, 351.500 366.252 C 349.300 366.263, 348.518 366.468, 349.762 366.707 M 135.250 367.689 C 136.213 367.941, 137.787 367.941, 138.750 367.689 C 139.713 367.438, 138.925 367.232, 137 367.232 C 135.075 367.232, 134.287 367.438, 135.250 367.689 M 123.762 368.707 C 125.006 368.946, 126.806 368.937, 127.762 368.687 C 128.718 368.437, 127.700 368.241, 125.500 368.252 C 123.300 368.263, 122.518 368.468, 123.762 368.707 M 370.762 368.707 C 372.006 368.946, 373.806 368.937, 374.762 368.687 C 375.718 368.437, 374.700 368.241, 372.500 368.252 C 370.300 368.263, 369.518 368.468, 370.762 368.707 M 423 374 C 420.940 374.660, 420.852 374.816, 422.500 374.885 C 423.600 374.931, 425.175 374.533, 426 374 C 427.752 372.868, 426.536 372.868, 423 374 M 67.500 375 C 65.824 375.720, 66.026 375.871, 68.750 375.930 C 70.537 375.968, 72 375.550, 72 375 C 72 373.813, 70.263 373.813, 67.500 375 M 428 375 C 428 375.550, 429.462 375.968, 431.250 375.930 C 433.974 375.871, 434.176 375.720, 432.500 375 C 429.737 373.813, 428 373.813, 428 375" stroke="none" fill="#646663" fill-rule="evenodd"/><path d="M 76.465 126.943 C 77.588 128.761, 88.219 135.235, 93.261 137.172 C 96.648 138.473, 100.716 139, 107.362 139 C 117.654 139, 121.511 139.966, 127.517 144.046 C 132.546 147.463, 134.961 152.252, 139.353 167.513 C 141.250 174.106, 146.248 191.173, 150.460 205.440 C 154.671 219.708, 158.753 234.108, 159.531 237.440 C 160.309 240.773, 164.108 254.465, 167.973 267.866 C 175.594 294.290, 177.413 298.011, 186.242 305.225 C 197.259 314.228, 196.148 314.109, 266.500 313.783 L 327.500 313.500 321.500 309.592 C 308.206 300.933, 312.896 301.518, 255.426 301.360 C 205.956 301.225, 204.226 301.156, 200.310 299.158 C 193.775 295.824, 189.856 291.923, 187.350 286.256 C 184.237 279.219, 184.380 278.437, 188.250 281.316 C 190.037 282.646, 194.425 284.792, 198 286.084 L 204.500 288.435 265.578 288.767 C 323.219 289.080, 326.774 288.997, 328.741 287.299 C 330.461 285.815, 331.364 282.178, 333.906 266.500 C 336.429 250.935, 337.354 247.196, 339.019 245.819 C 341.318 243.917, 344.358 243.526, 369.163 241.935 C 397.836 240.097, 400.012 239.528, 381.500 238.712 C 372.700 238.324, 361.180 238.005, 355.899 238.003 C 346.010 238, 340.535 236.837, 339.659 234.553 C 338.726 232.123, 340.241 225.092, 342.050 223.455 C 343.958 221.728, 348.042 221.344, 390.750 218.872 C 402.438 218.195, 412 217.343, 412 216.979 C 412 216.237, 379.470 215, 359.950 215 C 348.843 215, 346.921 214.753, 344.861 213.065 C 342.627 211.233, 342.592 211.035, 344.218 209.382 C 345.660 207.916, 348.867 207.502, 364.218 206.800 C 374.273 206.341, 388.125 205.388, 395 204.683 L 407.500 203.400 390.500 202.651 C 366.792 201.606, 350.180 200.167, 347.931 198.963 C 344.966 197.376, 344.401 193.281, 346.718 190.163 C 348.345 187.973, 349.835 187.357, 355.099 186.696 C 368.076 185.065, 368.045 184.213, 355 184.004 C 334.874 183.681, 317.799 184.112, 297.500 185.457 L 278.500 186.715 301.125 186.858 C 323.503 186.998, 330 187.492, 330 189.053 C 330 189.495, 327.413 190.129, 324.250 190.463 C 321.087 190.797, 316.025 191.447, 313 191.907 C 308.004 192.667, 308.479 192.755, 318.179 192.872 C 326.427 192.971, 329.215 193.358, 330.429 194.571 C 331.293 195.436, 332 196.471, 332 196.871 C 332 199.825, 328.956 200.001, 276.050 200.114 C 246.598 200.177, 216.650 200.514, 209.500 200.864 L 196.500 201.500 219.500 202.764 C 232.150 203.459, 260.050 204.694, 281.500 205.510 C 302.950 206.326, 322.373 207.241, 324.661 207.545 C 329.267 208.155, 330.978 210.451, 328.599 212.829 C 327.068 214.360, 323.524 214.529, 247.500 216.693 C 232.100 217.132, 221.975 217.586, 225 217.702 C 228.025 217.818, 245.350 218.386, 263.500 218.963 C 281.650 219.540, 303.388 220.283, 311.806 220.614 L 327.112 221.216 326.806 223.858 C 326.540 226.156, 325.914 226.588, 322 227.176 C 319.525 227.548, 312.100 227.960, 305.500 228.093 L 293.500 228.334 307.642 228.955 C 321.754 229.574, 325 230.439, 325 233.577 C 325 234.310, 323.538 235.153, 321.750 235.451 C 319.023 235.905, 250.685 237.611, 213.289 238.158 L 202.500 238.316 216.500 239.085 C 239.872 240.369, 285.539 241.961, 302.500 242.084 C 319.571 242.207, 323.500 242.754, 323.500 245.008 C 323.500 247.145, 319.059 247.869, 301.577 248.579 C 292.819 248.936, 286.294 249.571, 287.077 249.993 C 287.860 250.414, 295.250 250.985, 303.500 251.263 C 311.750 251.540, 319.288 252.092, 320.250 252.490 C 322.792 253.542, 322.455 256.867, 319.750 257.429 C 318.512 257.686, 301.549 258.382, 282.054 258.977 C 262.559 259.572, 246.486 260.181, 246.337 260.330 C 246.187 260.480, 258.988 261.154, 274.782 261.828 C 320.264 263.770, 320.824 263.877, 319.437 270.374 C 318.150 276.398, 321.530 276.087, 260.601 275.782 L 204.500 275.500 197.923 272.391 C 187.070 267.261, 179.900 257.996, 175.178 243 C 171.677 231.880, 162.227 199.962, 159.486 190 C 153.331 167.620, 147.637 150.106, 144.766 144.715 C 140.988 137.624, 136.596 133.654, 128.047 129.603 L 121.500 126.500 98.649 126.181 C 82.465 125.956, 75.992 126.178, 76.465 126.943 M 197.612 168.102 C 199.751 169.808, 204.200 172.610, 207.500 174.328 L 213.500 177.452 290 178.269 C 367.207 179.094, 386.691 178.651, 410 175.540 L 419.500 174.272 407.500 174.134 C 400.900 174.059, 386.053 173.528, 374.507 172.954 C 352.590 171.865, 349.846 171.240, 348.508 167.027 C 347.870 165.014, 347.325 165, 270.795 165 L 193.725 165 197.612 168.102 M 192.500 325.046 C 189.750 325.474, 182.775 325.896, 177 325.983 C 160.603 326.229, 160.463 327.639, 176.750 328.502 C 184.588 328.917, 191 329.412, 191 329.601 C 191 329.791, 190.010 331.984, 188.801 334.473 L 186.601 339 179.801 339 C 175.934 339, 173 339.431, 173 340 C 173 340.571, 176 341, 180 341 L 187 341 186.994 344.250 L 186.988 347.500 168.744 351.379 C 158.710 353.512, 138.350 358.280, 123.500 361.975 C 108.650 365.669, 91.832 369.756, 86.128 371.055 C 80.423 372.355, 76.199 373.566, 76.741 373.747 C 77.283 373.928, 86.901 372.908, 98.114 371.480 C 120.524 368.627, 158.659 365.032, 195 362.347 C 239.446 359.064, 286.128 360.179, 350 366.049 C 369.347 367.827, 416.108 373.165, 425 374.610 C 433.040 375.916, 426.041 373.757, 403.476 367.968 C 366.701 358.535, 356.902 356.186, 338.500 352.389 C 329.150 350.459, 320.719 348.654, 319.765 348.378 C 318.357 347.970, 318.059 346.805, 318.180 342.187 C 318.475 330.919, 311.579 323.960, 300.185 324.028 C 290.896 324.084, 280 332.915, 280 340.387 C 280 342.164, 279.360 344.491, 278.578 345.559 C 277.229 347.399, 275.848 347.492, 252.125 347.338 C 238.358 347.249, 226.624 346.885, 226.047 346.529 C 225.471 346.173, 225 343.972, 225 341.637 C 225 335.663, 220.573 328.940, 214.798 326.144 C 210.090 323.865, 202.485 323.491, 192.500 325.046 M 202.245 337.250 C 198.655 341.737, 200.766 348, 205.868 348 C 211.262 348, 214.090 341.201, 210.171 337.655 C 208.012 335.701, 203.662 335.479, 202.245 337.250 M 295.655 337.829 C 292.210 341.635, 294.543 348, 299.383 348 C 302.103 348, 306 344.574, 306 342.184 C 306 336.872, 299.136 333.982, 295.655 337.829" stroke="none" fill="#1f2423" fill-rule="evenodd"/></svg>